<?xml version="1.0" standalone="no"?>
<!DOCTYPE svg PUBLIC "-//W3C//DTD SVG 20010904//EN"
 "http://www.w3.org/TR/2001/REC-SVG-20010904/DTD/svg10.dtd">
<svg version="1.0" xmlns="http://www.w3.org/2000/svg"
 width="729.000000pt" height="729.000000pt" viewBox="0 0 729.000000 729.000000"
 preserveAspectRatio="xMidYMid meet">
<metadata>
Created by potrace 1.11, written by Peter Selinger 2001-2013
</metadata>
<g transform="translate(0.000000,729.000000) scale(0.100000,-0.100000)"
fill="#000000" stroke="none">
<path d="M1832 6784 c-6 -7 -12 -18 -12 -24 0 -5 -4 -10 -8 -10 -4 0 -15 -15
-23 -32 -22 -47 -53 -102 -60 -108 -4 -3 -9 -15 -13 -28 -4 -12 -12 -20 -17
-16 -5 3 -9 2 -8 -3 4 -15 -31 -83 -42 -83 -5 0 -8 -4 -5 -9 3 -5 -2 -19 -12
-32 -11 -13 -44 -70 -76 -126 -31 -57 -61 -103 -66 -103 -5 0 -7 -6 -4 -14 3
-7 -1 -20 -9 -28 -22 -22 -47 -75 -39 -83 4 -5 2 -6 -4 -2 -5 3 -19 -11 -29
-31 -11 -20 -22 -39 -25 -42 -3 -3 -14 -24 -25 -47 -11 -24 -23 -43 -27 -43
-5 0 -8 -7 -8 -15 0 -8 -5 -15 -11 -15 -5 0 -8 -4 -5 -9 3 -5 -1 -14 -9 -21
-8 -7 -12 -16 -9 -21 3 -5 0 -9 -5 -9 -6 0 -11 -7 -11 -15 0 -9 -7 -18 -15
-21 -8 -4 -12 -10 -9 -15 3 -5 0 -9 -6 -9 -6 0 -8 -4 -5 -10 3 -5 1 -10 -5
-10 -6 0 -8 -4 -5 -10 3 -5 1 -10 -4 -10 -6 0 -11 -7 -11 -15 0 -8 -8 -23 -17
-33 -10 -10 -19 -25 -21 -33 -2 -8 -8 -15 -13 -17 -5 -2 -9 -10 -9 -17 0 -8
-7 -21 -16 -29 -8 -9 -13 -16 -9 -16 3 0 -2 -12 -12 -27 -10 -16 -25 -40 -33
-55 -7 -16 -17 -28 -22 -28 -4 0 -8 -9 -8 -20 0 -11 -5 -20 -11 -20 -5 0 -8
-4 -5 -9 3 -5 -1 -12 -10 -15 -8 -3 -12 -10 -9 -16 3 -5 1 -10 -5 -10 -6 0 -8
-4 -5 -10 3 -5 1 -10 -5 -10 -6 0 -8 -4 -5 -10 3 -5 2 -10 -2 -10 -5 0 -17
-17 -28 -37 -11 -21 -22 -40 -25 -43 -3 -3 -14 -23 -25 -45 -11 -22 -23 -42
-27 -45 -3 -3 -8 -12 -10 -19 -2 -8 -11 -23 -21 -33 -10 -10 -15 -23 -12 -28
4 -6 3 -10 -2 -10 -4 0 -21 -25 -38 -55 -16 -30 -33 -55 -38 -55 -4 0 -6 -4
-2 -10 3 -5 -2 -18 -12 -28 -10 -10 -19 -24 -21 -31 -1 -7 -9 -20 -17 -28 -9
-8 -13 -19 -9 -24 3 -5 -2 -12 -10 -15 -9 -3 -16 -12 -16 -20 0 -8 -4 -14 -10
-14 -5 0 -7 -7 -4 -15 4 -8 2 -15 -4 -15 -5 0 -15 -13 -22 -30 -7 -16 -17 -30
-22 -30 -6 0 -8 -6 -5 -13 3 -7 -4 -19 -14 -26 -11 -6 -17 -15 -15 -20 3 -5
-3 -20 -14 -34 -11 -14 -20 -30 -20 -36 0 -6 -3 -11 -8 -11 -4 0 -13 -14 -21
-31 -8 -18 -31 -60 -52 -95 -22 -35 -39 -68 -39 -74 0 -5 -4 -10 -10 -10 -5 0
-10 -4 -10 -10 0 -5 -18 -39 -40 -75 -22 -36 -40 -70 -40 -75 0 -6 -4 -10 -9
-10 -5 0 -12 -11 -15 -25 -4 -14 -11 -25 -17 -25 -6 0 -8 -4 -5 -9 3 -5 -1
-14 -9 -21 -8 -7 -15 -17 -15 -22 0 -5 -16 -34 -35 -64 -19 -30 -35 -57 -35
-60 0 -3 -9 -19 -21 -35 -11 -16 -17 -29 -12 -29 4 0 3 -4 -3 -8 -12 -8 -58
-83 -76 -124 -7 -16 -16 -28 -21 -28 -4 0 -5 -4 -2 -10 3 -5 1 -10 -5 -10 -6
0 -8 -4 -5 -10 3 -5 2 -10 -4 -10 -5 0 -13 -9 -16 -20 -4 -12 -11 -17 -18 -13
-8 5 -8 2 0 -9 7 -8 10 -18 6 -21 -3 -4 -2 -7 4 -7 5 0 20 -22 33 -50 13 -27
28 -46 33 -43 6 3 7 1 3 -5 -3 -6 2 -18 11 -28 10 -10 17 -19 16 -21 -9 -11 0
-33 13 -33 10 0 14 -6 11 -14 -3 -8 1 -17 9 -20 9 -3 12 -10 9 -16 -3 -5 -2
-10 3 -10 6 0 15 -12 21 -27 20 -52 58 -112 66 -105 5 4 5 -1 2 -10 -4 -10 -2
-18 3 -18 6 0 10 -6 10 -14 0 -8 6 -16 14 -19 8 -3 17 -20 21 -37 4 -17 13
-34 21 -37 8 -3 14 -13 14 -22 0 -10 9 -27 20 -39 11 -12 20 -27 20 -33 0 -7
6 -20 14 -28 7 -9 26 -41 42 -71 16 -30 32 -57 35 -60 3 -3 8 -12 12 -20 4 -8
18 -33 31 -55 14 -22 37 -64 53 -92 15 -29 31 -53 36 -53 4 0 5 -4 2 -10 -3
-5 -2 -10 2 -10 5 0 14 -12 21 -27 6 -16 23 -46 36 -68 14 -22 30 -49 35 -60
6 -11 24 -42 40 -70 17 -27 38 -65 47 -82 9 -18 20 -33 25 -33 5 0 8 -3 8 -7
-4 -23 2 -43 11 -38 9 5 12 -1 9 -21 0 -4 4 -10 9 -13 8 -5 26 -35 72 -123 9
-16 19 -26 22 -22 4 3 5 -2 4 -12 -2 -10 5 -27 16 -38 10 -11 18 -26 18 -33 0
-7 4 -13 8 -13 4 0 18 -19 30 -43 12 -23 31 -55 41 -72 10 -16 16 -33 14 -37
-2 -5 1 -8 6 -8 6 0 18 -18 27 -40 9 -22 20 -40 26 -40 5 0 6 -5 3 -10 -3 -6
-1 -10 4 -10 6 0 11 -5 11 -12 0 -6 8 -20 17 -31 13 -15 14 -18 3 -12 -8 4 -5
-2 8 -14 12 -12 22 -28 22 -36 0 -8 3 -15 8 -15 4 0 14 -15 21 -33 8 -17 21
-38 28 -45 7 -7 13 -20 13 -28 0 -8 5 -14 11 -14 5 0 8 -4 5 -9 -4 -5 -3 -11
1 -13 10 -4 52 -76 60 -100 3 -10 10 -18 15 -18 5 0 6 -4 3 -10 -3 -5 -2 -10
3 -10 4 0 14 -16 22 -35 7 -19 20 -37 27 -40 8 -2 12 -9 9 -13 -3 -5 4 -18 14
-30 11 -12 20 -28 20 -37 0 -8 4 -15 8 -15 5 0 14 -16 22 -35 8 -19 17 -35 22
-35 4 0 8 -7 8 -16 0 -9 9 -25 21 -35 11 -9 20 -20 20 -23 -3 -22 0 -38 5 -33
3 3 20 -20 36 -51 17 -31 37 -65 46 -74 8 -10 12 -18 7 -18 -4 0 4 -15 17 -32
13 -18 32 -49 41 -69 9 -20 23 -42 32 -49 8 -7 12 -16 9 -22 -3 -5 4 -17 16
-28 12 -10 21 -21 21 -24 -1 -3 0 -8 0 -11 1 -3 2 -11 3 -17 1 -7 8 -12 15
-10 7 1 10 -1 8 -5 -3 -5 1 -17 8 -27 11 -14 23 -17 54 -14 24 2 41 -1 41 -7
0 -5 5 -3 10 5 8 13 10 13 10 0 0 -10 3 -11 11 -3 6 6 25 7 50 3 21 -4 39 -5
39 -1 0 8 85 5 99 -4 6 -3 11 -1 11 5 0 7 6 8 19 0 11 -5 22 -7 24 -3 3 5 590
8 1305 8 773 0 1298 4 1294 9 -3 5 1 5 9 0 20 -12 239 -13 232 0 -4 5 -1 6 8
0 19 -11 379 -12 379 -1 0 5 7 4 15 -3 20 -17 36 -3 77 69 17 31 35 57 40 59
4 2 8 9 8 16 0 8 9 25 20 38 10 14 17 28 14 30 -2 3 2 11 11 18 8 7 15 16 15
21 0 5 13 29 30 55 16 26 27 51 23 57 -3 6 -1 7 5 3 7 -4 14 3 18 19 3 14 9
25 13 25 4 0 13 16 21 35 8 19 17 35 21 35 4 0 9 8 12 18 9 25 58 106 69 113
5 3 9 8 8 10 -4 10 20 59 29 59 10 0 37 69 33 83 -1 5 2 6 7 3 5 -3 14 8 21
24 7 17 17 30 22 30 5 0 6 5 3 10 -3 6 1 13 9 16 9 3 16 13 16 20 0 15 28 65
43 75 5 3 8 10 8 15 -1 5 4 16 11 25 7 8 14 22 16 30 2 8 13 24 25 37 12 13
21 27 20 30 -2 8 54 110 73 132 7 8 13 17 13 20 0 14 14 39 20 36 4 -3 8 5 8
16 1 12 6 24 11 27 5 3 19 26 33 51 13 25 28 48 34 52 5 4 10 11 10 15 2 21
18 53 27 53 5 0 7 7 4 16 -3 8 -2 13 2 10 5 -3 19 17 33 44 13 26 27 46 32 43
4 -2 6 -1 5 4 -4 14 13 53 23 53 5 0 9 9 9 20 0 11 4 20 8 20 4 0 20 25 36 55
15 30 32 55 38 55 6 0 9 3 5 6 -3 4 9 31 28 60 19 30 34 55 33 57 -1 1 11 21
25 44 15 24 27 47 27 53 0 5 4 10 9 10 7 0 18 24 20 46 0 2 6 11 13 19 32 35
38 45 38 60 0 9 7 18 15 21 8 4 13 10 10 14 -3 5 2 15 10 24 9 8 15 17 13 18
-2 3 24 47 55 92 12 18 14 26 6 22 -8 -4 -6 -1 4 7 9 8 17 19 17 26 0 6 5 11
12 11 6 0 8 3 5 6 -3 4 3 18 13 32 11 13 20 31 20 38 0 8 3 14 8 14 4 0 13 13
20 30 7 16 24 45 37 64 13 19 21 37 17 40 -3 3 0 6 6 6 7 0 12 7 12 15 0 8 5
15 11 15 5 0 8 4 5 9 -3 5 1 14 9 21 8 7 15 19 15 26 0 8 5 14 11 14 5 0 8 4
5 9 -3 5 1 14 9 21 8 7 15 18 15 25 0 8 3 15 8 17 10 4 48 80 44 91 -1 5 1 6
6 3 9 -5 37 42 34 57 -1 4 2 7 7 7 5 0 14 13 21 29 6 16 23 44 36 62 13 18 21
36 18 40 -3 5 -1 9 5 9 5 0 16 14 25 31 14 28 14 32 -4 52 -11 11 -20 27 -20
34 0 7 -5 13 -11 13 -5 0 -7 5 -4 10 3 6 -1 13 -9 16 -9 3 -14 10 -11 14 2 4
-4 18 -15 30 -11 12 -17 27 -14 31 3 5 1 9 -4 9 -5 0 -15 14 -22 30 -7 17 -17
30 -22 30 -5 0 -7 4 -3 9 3 5 -1 15 -8 23 -7 7 -23 34 -37 61 -14 26 -29 47
-33 47 -5 0 -5 5 -2 10 3 6 1 10 -5 10 -6 0 -8 5 -5 10 3 6 3 10 -2 10 -4 0
-13 10 -19 23 -32 64 -48 92 -54 97 -4 3 -20 30 -36 60 -16 30 -31 57 -34 60
-3 3 -16 25 -29 50 -13 25 -30 52 -38 61 -7 9 -10 19 -6 22 3 4 1 7 -6 7 -7 0
-9 5 -6 10 3 6 2 10 -2 10 -5 0 -17 17 -28 38 -10 20 -24 43 -29 51 -6 7 -11
20 -12 29 -2 8 -7 18 -11 21 -14 9 -58 85 -55 94 1 4 -3 7 -10 7 -6 0 -9 3 -5
6 3 4 1 12 -6 20 -22 25 -37 44 -37 46 -1 18 -14 48 -22 48 -5 0 -6 5 -3 10 3
6 2 10 -3 10 -8 0 -36 50 -32 59 1 2 -2 7 -7 10 -17 13 -48 54 -33 46 8 -5 5
4 -8 19 -12 16 -22 35 -22 42 0 8 -4 14 -10 14 -5 0 -10 7 -10 15 0 8 -5 15
-11 15 -5 0 -7 5 -4 10 3 6 2 10 -4 10 -9 0 -17 17 -23 45 -1 6 -6 15 -12 21
-16 17 -41 54 -42 62 0 4 -10 23 -22 42 -11 19 -21 39 -21 44 1 5 -4 12 -9 15
-12 8 -47 74 -44 84 1 4 -5 7 -14 7 -8 0 -12 5 -9 10 3 6 2 10 -4 10 -6 0 -8
7 -5 15 4 8 2 15 -4 15 -8 0 -67 101 -73 125 -1 6 -9 15 -18 22 -9 7 -11 13
-6 13 6 0 6 3 -1 8 -12 8 -73 113 -72 126 0 5 -7 13 -16 18 -9 5 -14 13 -11
19 4 5 2 9 -2 9 -5 0 -14 12 -21 28 -6 15 -21 43 -33 62 -12 19 -33 55 -47 80
-13 25 -31 52 -38 61 -8 9 -12 18 -9 21 3 3 -1 11 -10 18 -8 7 -15 19 -15 26
0 8 -4 14 -10 14 -5 0 -9 3 -8 8 2 10 -36 72 -45 72 -5 0 -6 4 -2 9 3 5 -2 17
-11 25 -8 9 -13 16 -9 16 3 0 -8 20 -25 44 -16 25 -30 49 -30 55 0 6 -5 11
-11 11 -5 0 -7 5 -4 10 3 6 -1 13 -9 16 -9 3 -13 10 -10 15 3 5 -2 16 -10 25
-9 8 -16 22 -16 30 0 8 -4 14 -10 14 -5 0 -10 6 -10 14 0 7 -7 19 -15 26 -8 7
-12 16 -9 21 3 5 1 9 -4 9 -5 0 -19 23 -32 50 -13 28 -26 50 -30 50 -3 0 -12
16 -19 35 -7 19 -16 35 -20 35 -5 0 -15 15 -22 33 -18 45 -28 52 -77 55 -33 2
-42 0 -36 -9 5 -8 3 -9 -7 -3 -21 13 -159 13 -159 0 0 -6 -4 -5 -9 3 -8 13
-12 13 -27 0 -10 -8 -15 -9 -12 -3 4 6 -8 10 -33 11 -23 0 -39 -4 -39 -11 0
-6 -4 -5 -9 3 -8 13 -12 13 -27 0 -10 -8 -15 -9 -11 -3 4 7 -19 11 -73 11 -54
1 -78 -2 -73 -10 4 -6 1 -7 -8 -1 -21 13 -159 13 -159 0 0 -6 -4 -5 -9 3 -8
13 -12 13 -27 0 -10 -8 -15 -9 -12 -3 4 6 -8 10 -33 11 -23 0 -39 -4 -39 -11
0 -6 -4 -5 -9 3 -8 13 -12 13 -27 0 -10 -8 -15 -9 -11 -3 9 15 -155 14 -165
-1 -5 -7 -8 -7 -8 0 0 11 -65 13 -76 2 -4 -3 -15 -2 -25 4 -13 7 -26 6 -40 -2
-12 -6 -19 -7 -16 -2 4 5 -7 10 -23 10 -17 0 -27 -5 -23 -10 4 -6 1 -7 -6 -2
-20 12 -102 14 -94 2 4 -6 1 -7 -8 -2 -17 11 -79 13 -85 3 -3 -5 -14 -3 -25 2
-13 8 -25 7 -40 -1 -12 -6 -19 -7 -16 -2 4 5 -7 10 -23 10 -16 0 -27 -5 -23
-10 3 -5 -5 -3 -18 3 -17 10 -24 10 -27 1 -2 -6 -9 -8 -15 -4 -18 11 -127 10
-120 -1 4 -5 1 -6 -7 -1 -19 12 -120 13 -113 2 3 -5 -5 -3 -18 3 -18 10 -24
10 -27 1 -3 -9 -7 -9 -18 0 -11 9 -14 8 -14 -2 0 -12 -2 -12 -9 -1 -11 17 -21
17 -32 0 -5 -7 -9 -8 -9 -3 0 11 -100 12 -118 1 -6 -3 -14 -1 -18 5 -4 8 -9 7
-15 -2 -7 -11 -9 -11 -9 -1 0 9 -5 10 -19 2 -14 -7 -20 -7 -23 2 -3 8 -9 8
-25 -1 -16 -8 -24 -8 -29 0 -4 8 -9 7 -15 -2 -7 -11 -9 -11 -9 -1 0 9 -5 10
-19 2 -14 -7 -21 -6 -24 3 -4 8 -8 8 -14 2 -9 -11 -43 -16 -43 -6 0 8 -204 6
-218 -3 -6 -3 -14 -1 -18 5 -4 8 -9 7 -15 -2 -7 -11 -9 -11 -9 -1 0 9 -5 10
-19 2 -14 -7 -20 -7 -23 2 -3 8 -9 8 -25 -1 -16 -8 -24 -8 -29 0 -4 8 -9 7
-15 -2 -7 -11 -9 -11 -9 -1 0 9 -5 10 -19 2 -14 -7 -21 -6 -24 3 -4 8 -8 8
-14 2 -10 -12 -36 -13 -44 -2 -3 4 -17 3 -32 -2 -18 -7 -27 -7 -29 1 -3 8 -10
8 -25 -1 -16 -8 -24 -8 -29 0 -4 8 -9 7 -15 -2 -7 -11 -9 -11 -9 -1 0 10 -5
10 -20 2 -15 -8 -20 -8 -20 2 0 10 -2 10 -9 -1 -7 -10 -9 -11 -13 -1 -3 10 -9
10 -22 3 -11 -6 -33 -7 -52 -3 -19 4 -34 5 -34 1 0 -3 -13 -6 -30 -6 -16 0
-30 4 -30 8 0 4 -7 4 -16 -1 -9 -5 -32 -6 -50 -2 -19 4 -34 5 -34 1 0 -3 -13
-6 -30 -6 -16 0 -30 4 -30 8 0 4 -7 4 -16 -1 -9 -5 -32 -6 -50 -2 -19 4 -34 5
-34 1 0 -11 -44 -8 -52 4 -5 6 -8 6 -8 -2 0 -8 -9 -9 -28 -4 -19 6 -31 4 -40
-5z"/>
</g>
</svg>
